<?xml version="1.0" encoding="utf-8"?>
<!-- Generator: Adobe Illustrator 24.3.0, SVG Export Plug-In . SVG Version: 6.00 Build 0)  -->
<svg version="1.1" id="Layer_1" xmlns="http://www.w3.org/2000/svg" xmlns:xlink="http://www.w3.org/1999/xlink" x="0px" y="0px"
	 viewBox="0 0 1685.7 450" style="enable-background:new 0 0 1685.7 450;" xml:space="preserve">
<style type="text/css">
	.st0{fill:#E6956D;}
	.st1{fill:#DE3E1B;}
</style>
<path class="st0" d="M44.2,73C88.4,18,146.3,1.2,204.7,24.7c50.9,20.5,85.3,86.1,79.7,155.3c-24.7-43.7-55.5-78.2-100.8-97.3
	C139.2,64.1,93.3,62.5,44.2,73z"/>
<path class="st0" d="M145.6,176.1c-54.2,94.1-39.6,178.6,27,257.8C113,429.1,64.9,383.4,56.9,324.2
	C48.1,259.5,100.5,195.5,145.6,176.1z"/>
<path class="st0" d="M423.8,142.3c23.7,51.3,10.4,111.1-29.2,147.1c-47.1,42.8-120,37.5-171.1,5.9
	C326.5,292,389.7,237.3,423.8,142.3z"/>
<path class="st1" d="M150.4,290.5c67.8,61.1,144.4,83.3,233.3,56.4c-17.3,37.2-77,61.8-128.2,54.3
	C201.9,393.4,157.9,347.7,150.4,290.5z"/>
<path class="st1" d="M14.8,299.9C-11,233,8,178.4,47.6,143.6c33.8-29.7,83-38.5,122.3-23.1C84.9,151.7,34.6,211.3,14.8,299.9z"/>
<path class="st1" d="M320,226.5c14.4-84.7-3.5-159.3-66.2-221c52.2,10.9,88.4,40,103.1,90.9C371.2,146.1,357.7,189.9,320,226.5z"/>
<path class="st1" d="M649.5,350.2l-92-232.8c-0.9-1.9-2-3.7-3.3-5.4c-1.4-1.8-3.3-3.2-5.5-4l-19.2-8V86.8h96V100l-30.2,10.7
	L660.6,277l6.9,24.1h2.9l71.6-189.3L711.6,100V86.8h81.2V100l-18.7,8.5c-2,0.9-3.9,2.2-5.4,3.8c-1.6,1.6-2.9,3.5-3.6,5.6L691,307.2
	l-20.5,42.9L649.5,350.2z"/>
<path class="st1" d="M889.7,351.1c-18.8,0-35.3-4.1-49.5-12.3c-14.2-8.3-25.7-20.5-33-35.1c-7.9-15.2-11.8-33.3-11.8-54.3
	c0-19.4,3.9-36.9,11.7-52.4c7.5-15.1,19-27.8,33.2-36.8c14.4-9.1,31.4-13.6,51.1-13.6c21.4,0,39,4.7,52.9,14.2
	c13.7,9.3,24.5,22.2,31.1,37.4c6.9,15.9,10.4,33,10.2,50.4c0,19.1-3.9,36.4-11.6,51.9c-7.4,15.2-18.9,28-33.2,37
	C926.6,346.5,909.5,351.1,889.7,351.1z M892.3,331.3c10.5,0,19.2-2.4,26.1-7.2c6.9-4.9,12.6-11.4,16.4-19c4.1-8.1,7-16.7,8.6-25.6
	c4.2-22.7,3.2-46.1-3.1-68.4c-3.7-13.2-9.8-23.9-18.1-32.2c-8.3-8.3-19.5-12.5-33.3-12.5c-10.4,0-19,2.4-25.9,7.1
	c-6.9,4.8-12.6,11.3-16.4,18.8c-4.1,8-7.1,16.6-8.7,25.4c-1.7,8.8-2.6,17.8-2.6,26.8c0,10,1,20,2.8,29.9c1.7,9.8,4.9,19.2,9.3,28.1
	c4.1,8.2,10.1,15.4,17.5,20.8C872.1,328.7,881.3,331.3,892.3,331.3L892.3,331.3z"/>
<path class="st1" d="M1016.2,346.6v-13.2l27.4-7.2c1.9-0.5,3.7-1.6,5.2-3c1.5-1.6,2.2-3.7,2.1-5.9V102.4c0.1-2.3-0.8-4.6-2.4-6.2
	c-1.6-1.5-3.5-2.6-5.5-3.4l-27.9-10.3V69.6l71.9-3.3v250.9c-0.1,2.2,0.7,4.3,2.3,5.9c1.5,1.4,3.2,2.4,5.2,3l26.4,7.2v13.2
	L1016.2,346.6z"/>
<path class="st1" d="M1280.5,152l-1.3,20.7h-67.6v126.6c-0.2,5.3,2.3,10.4,6.5,13.7c4.5,3.5,9.6,6.1,15.1,7.5
	c4.7,1.4,9.6,2.2,14.6,2.4c5-0.1,10-0.8,14.8-2.2c4.2-0.9,8.2-2.3,12.1-4h6.2v14.9c-3.8,2.4-7.7,4.5-11.8,6.5
	c-6.3,3.2-12.8,5.9-19.5,8.1c-7.1,2.4-14.5,3.7-22,3.7c-8.8,0.1-17.6-1.5-25.9-4.6c-7.4-2.7-14-7.3-19.2-13.2
	c-4.9-5.8-7.4-13.2-7.2-20.7V172.7h-31.5V156c6.9-1.1,12.9-2.3,17.9-3.5c4.8-1.1,9-3.7,12.1-7.5c3-3.7,4.8-9.8,5.2-18.1l1.8-26.6
	l30.6-5.8V152H1280.5z"/>
<path class="st1" d="M1400,350.7c-17.5,0-33.3-3.8-47.5-11.5c-14.1-7.7-25.3-19-33.5-34c-8.2-15-12.3-33.3-12.3-55.1
	c0-19.4,4-37,11.9-52.6c7.5-15.1,18.9-28,33-37.2c14.1-9.2,30.4-13.8,49-13.8c17.2,0,31.8,3.6,43.9,10.7
	c11.7,6.7,21.4,16.5,27.9,28.3c6.5,11.7,9.8,24.9,9.7,38.2c0,1.6-0.1,3.6-0.2,6.1s-0.3,4.9-0.5,7.3c-0.1,2.1-0.5,4.1-1,6.2h-138.8
	l1.1-18.8h100.7c0-11.8-1.5-22.1-4.4-30.8c-3-8.7-7.7-15.4-14.3-20.2c-6.6-4.8-15.4-7.1-26.4-7.1c-10.6,0-19.4,2.3-26.4,6.8
	c-7,4.5-12.7,10.7-16.6,18c-4.1,7.7-7,16-8.6,24.5c-1.7,8.6-2.5,17.4-2.5,26.2c0,15.3,2.2,29.2,6.6,41.5s11.6,22.1,21.7,29.3
	c10,7.2,23.5,10.8,40.4,10.8c8.9,0.1,17.7-1.3,26.1-4.1c7.6-2.5,14.8-5.7,21.7-9.7c5.5-3.1,10.7-6.6,15.8-10.3h5.1v20.9
	c-9.1,7.3-20.8,14.3-35.1,20.8C1431.9,347.5,1416,350.8,1400,350.7z"/>
<path class="st1" d="M1680.3,298.2h5.4v20.6c-10,8.2-20.7,15.3-32.1,21.5c-12.6,6.9-27.1,10.4-43.7,10.4c-18.5,0-34.4-4.3-47.8-12.8
	c-13.4-8.5-24.2-20.7-31.1-35c-7.3-14.9-11-31.8-11-50.9c-0.2-14.5,2.8-28.9,8.6-42.2c11.1-25,31.3-44.7,56.5-55.2
	c12.3-5.1,25.4-7.7,38.7-7.7c14.9-0.3,29.7,2.8,43.2,9c5,2.3,9,4.3,12,5.7l-1.3,36.6h-8c-6.4-3.7-12.7-7.7-18.9-11.8
	c-6.4-4.2-13.2-7.7-20.3-10.4c-7.3-2.8-15.9-4.3-25.6-4.3c-4.3,0-9.4,1.1-15.2,3.4c-5.8,2.2-10.3,5.2-13.6,8.8
	c-3,3.6-5.7,7.4-8,11.5c-2.7,4.7-4.9,10.9-6.6,18.8s-2.6,18-2.6,30.4c0,24.8,5.4,44,16.3,57.9c10.9,13.8,26.7,20.7,47.5,20.8
	c7.9,0.1,15.7-1.4,23.1-4.3c6.8-2.7,13.4-6.1,19.5-10.1C1671,304.9,1676,301.3,1680.3,298.2z"/>
</svg>
